<svg xmlns="http://www.w3.org/2000/svg" viewBox="0 0 512 512">
  <!-- Dark Slate Background -->
  <rect width="512" height="512" rx="112" fill="#0f172a"/>
  <!-- Soil base -->
  <path d="M128 384 H 384 C 401.67 384 416 398.33 416 416 C 416 433.67 401.67 448 384 448 H 128 C 110.33 448 96 433.67 96 416 C 96 398.33 110.33 384 128 384 Z" fill="#8B7355"/>
  <!-- Plant Stem & Leaf -->
  <path d="M256 384 V 224 C 256 160 352 128 384 128 C 384 192 320 224 288 224" fill="none" stroke="#84CC16" stroke-width="32" stroke-linecap="round" stroke-linejoin="round"/>
  <path d="M256 288 C 256 224 160 192 128 192 C 128 256 192 288 224 288" fill="none" stroke="#84CC16" stroke-width="32" stroke-linecap="round" stroke-linejoin="round"/>
</svg>
